<mxfile host="65bd71144e" modified="2020-10-23T06:19:29.951Z" agent="5.0 (Windows NT 10.0; Win64; x64) AppleWebKit/537.36 (KHTML, like Gecko) Code/1.50.1 Chrome/83.0.4103.122 Electron/9.2.1 Safari/537.36" etag="mqYdJpsuc5Bc5GG0tMgs" version="13.6.5">
    <diagram id="6hGFLwfOUW9BJ-s0fimq" name="Page-1">
        <mxGraphModel dx="1427" dy="1131" grid="1" gridSize="10" guides="1" tooltips="1" connect="1" arrows="1" fold="1" page="1" pageScale="1" pageWidth="900" pageHeight="700" math="0" shadow="0">
            <root>
                <mxCell id="0"/>
                <mxCell id="1" parent="0"/>
                <mxCell id="173" value="" style="group;verticalAlign=top;" parent="1" vertex="1" connectable="0">
                    <mxGeometry x="70" y="50" width="800" height="600" as="geometry"/>
                </mxCell>
                <mxCell id="186" value="" style="group" vertex="1" connectable="0" parent="173">
                    <mxGeometry width="800" height="600" as="geometry"/>
                </mxCell>
                <mxCell id="187" value="" style="group" vertex="1" connectable="0" parent="186">
                    <mxGeometry width="800" height="600" as="geometry"/>
                </mxCell>
                <mxCell id="148" value="" style="rounded=0;whiteSpace=wrap;html=1;fontFamily=微軟正黑體;fontSize=24;fontStyle=1;strokeWidth=3;shadow=0;glass=0;comic=0;align=center;" parent="187" vertex="1">
                    <mxGeometry width="800" height="600" as="geometry"/>
                </mxCell>
                <mxCell id="289" value="&lt;span style=&quot;color: rgba(0 , 0 , 0 , 0) ; font-family: monospace ; font-size: 0px ; font-weight: 400&quot;&gt;%3CmxGraphModel%3E%3Croot%3E%3CmxCell%20id%3D%220%22%2F%3E%3CmxCell%20id%3D%221%22%20parent%3D%220%22%2F%3E%3CmxCell%20id%3D%222%22%20value%3D%22%22%20style%3D%22group%3BverticalAlign%3Dtop%3B%22%20vertex%3D%221%22%20connectable%3D%220%22%20parent%3D%221%22%3E%3CmxGeometry%20x%3D%2270%22%20y%3D%2250%22%20width%3D%22800%22%20height%3D%22600%22%20as%3D%22geometry%22%2F%3E%3C%2FmxCell%3E%3CmxCell%20id%3D%223%22%20value%3D%22%22%20style%3D%22group%22%20vertex%3D%221%22%20connectable%3D%220%22%20parent%3D%222%22%3E%3CmxGeometry%20width%3D%22800%22%20height%3D%22600%22%20as%3D%22geometry%22%2F%3E%3C%2FmxCell%3E%3CmxCell%20id%3D%224%22%20value%3D%22%22%20style%3D%22group%22%20vertex%3D%221%22%20connectable%3D%220%22%20parent%3D%223%22%3E%3CmxGeometry%20width%3D%22800%22%20height%3D%22600%22%20as%3D%22geometry%22%2F%3E%3C%2FmxCell%3E%3CmxCell%20id%3D%225%22%20value%3D%22%22%20style%3D%22rounded%3D0%3BwhiteSpace%3Dwrap%3Bhtml%3D1%3BfontFamily%3D%E5%BE%AE%E8%BB%9F%E6%AD%A3%E9%BB%91%E9%AB%94%3BfontSize%3D24%3BfontStyle%3D1%3BstrokeWidth%3D3%3Bshadow%3D0%3Bglass%3D0%3Bcomic%3D0%3Balign%3Dcenter%3B%22%20vertex%3D%221%22%20parent%3D%224%22%3E%3CmxGeometry%20width%3D%22800%22%20height%3D%22600%22%20as%3D%22geometry%22%2F%3E%3C%2FmxCell%3E%3CmxCell%20id%3D%226%22%20value%3D%22%22%20style%3D%22rounded%3D0%3BwhiteSpace%3Dwrap%3Bhtml%3D1%3BfontFamily%3D%E5%BE%AE%E8%BB%9F%E6%AD%A3%E9%BB%91%E9%AB%94%3BfontSize%3D24%3BfontStyle%3D1%3BstrokeWidth%3D3%3Bshadow%3D0%3Bglass%3D0%3Bcomic%3D0%3Balign%3Dcenter%3B%22%20vertex%3D%221%22%20parent%3D%224%22%3E%3CmxGeometry%20width%3D%22800%22%20height%3D%2250%22%20as%3D%22geometry%22%2F%3E%3C%2FmxCell%3E%3CmxCell%20id%3D%227%22%20value%3D%22%26lt%3Bdiv%20style%3D%26quot%3B%26quot%3B%26gt%3B%26lt%3Bspan%20style%3D%26quot%3Bfont-size%3A%2024px%26quot%3B%26gt%3B%26lt%3Bb%26gt%3BEngineer%20Evolution%26lt%3B%2Fb%26gt%3B%26lt%3B%2Fspan%26gt%3B%26lt%3B%2Fdiv%26gt%3B%22%20style%3D%22text%3BwhiteSpace%3Dwrap%3Bhtml%3D1%3Balign%3Dcenter%3BverticalAlign%3Dmiddle%3B%22%20vertex%3D%221%22%20parent%3D%224%22%3E%3CmxGeometry%20width%3D%22250%22%20height%3D%2250%22%20as%3D%22geometry%22%2F%3E%3C%2FmxCell%3E%3CmxCell%20id%3D%228%22%20value%3D%22%22%20style%3D%22group%22%20vertex%3D%221%22%20connectable%3D%220%22%20parent%3D%224%22%3E%3CmxGeometry%20x%3D%22640%22%20y%3D%22100%22%20width%3D%2281%22%20height%3D%22110%22%20as%3D%22geometry%22%2F%3E%3C%2FmxCell%3E%3CmxCell%20id%3D%229%22%20value%3D%22%22%20style%3D%22rounded%3D0%3BwhiteSpace%3Dwrap%3Bhtml%3D1%3BfontFamily%3D%E5%BE%AE%E8%BB%9F%E6%AD%A3%E9%BB%91%E9%AB%94%3BfontSize%3D24%3BfontStyle%3D1%3BstrokeWidth%3D3%3Bshadow%3D0%3Bglass%3D0%3Bcomic%3D0%3Balign%3Dcenter%3B%22%20vertex%3D%221%22%20parent%3D%228%22%3E%3CmxGeometry%20width%3D%2281%22%20height%3D%22110%22%20as%3D%22geometry%22%2F%3E%3C%2FmxCell%3E%3CmxCell%20id%3D%2210%22%20value%3D%22%22%20style%3D%22group%22%20vertex%3D%221%22%20connectable%3D%220%22%20parent%3D%228%22%3E%3CmxGeometry%20x%3D%2225.5%22%20y%3D%2225%22%20width%3D%2245.5%22%20height%3D%2285%22%20as%3D%22geometry%22%2F%3E%3C%2FmxCell%3E%3CmxCell%20id%3D%2211%22%20value%3D%22%22%20style%3D%22shape%3Dor%3BwhiteSpace%3Dwrap%3Bhtml%3D1%3BstrokeWidth%3D3%3Brotation%3D-90%3B%22%20vertex%3D%221%22%20parent%3D%2210%22%3E%3CmxGeometry%20y%3D%2230%22%20width%3D%2230%22%20height%3D%2230%22%20as%3D%22geometry%22%2F%3E%3C%2FmxCell%3E%3CmxCell%20id%3D%2212%22%20value%3D%22%22%20style%3D%22ellipse%3BwhiteSpace%3Dwrap%3Bhtml%3D1%3Baspect%3Dfixed%3BstrokeWidth%3D3%3B%22%20vertex%3D%221%22%20parent%3D%2210%22%3E%3CmxGeometry%20width%3D%2230%22%20height%3D%2230%22%20as%3D%22geometry%22%2F%3E%3C%2FmxCell%3E%3CmxCell%20id%3D%2213%22%20value%3D%22%22%20style%3D%22group%22%20vertex%3D%221%22%20connectable%3D%220%22%20parent%3D%2210%22%3E%3CmxGeometry%20x%3D%22-35.5%22%20y%3D%22-25%22%20width%3D%2281%22%20height%3D%22110%22%20as%3D%22geometry%22%2F%3E%3C%2FmxCell%3E%3CmxCell%20id%3D%2214%22%20value%3D%22%22%20style%3D%22rounded%3D0%3BwhiteSpace%3Dwrap%3Bhtml%3D1%3BfontFamily%3D%E5%BE%AE%E8%BB%9F%E6%AD%A3%E9%BB%91%E9%AB%94%3BfontSize%3D24%3BfontStyle%3D1%3BstrokeWidth%3D3%3Bshadow%3D0%3Bglass%3D0%3Bcomic%3D0%3Balign%3Dcenter%3B%22%20vertex%3D%221%22%20parent%3D%2213%22%3E%3CmxGeometry%20width%3D%2281%22%20height%3D%22110%22%20as%3D%22geometry%22%2F%3E%3C%2FmxCell%3E%3CmxCell%20id%3D%2215%22%20value%3D%22%22%20style%3D%22group%22%20vertex%3D%221%22%20connectable%3D%220%22%20parent%3D%2213%22%3E%3CmxGeometry%20x%3D%2225.5%22%20y%3D%2225%22%20width%3D%2245.5%22%20height%3D%2285%22%20as%3D%22geometry%22%2F%3E%3C%2FmxCell%3E%3CmxCell%20id%3D%2216%22%20value%3D%22%22%20style%3D%22shape%3Dor%3BwhiteSpace%3Dwrap%3Bhtml%3D1%3BstrokeWidth%3D3%3Brotation%3D-90%3B%22%20vertex%3D%221%22%20parent%3D%2215%22%3E%3CmxGeometry%20y%3D%2230%22%20width%3D%2230%22%20height%3D%2230%22%20as%3D%22geometry%22%2F%3E%3C%2FmxCell%3E%3CmxCell%20id%3D%2217%22%20value%3D%22%22%20style%3D%22ellipse%3BwhiteSpace%3Dwrap%3Bhtml%3D1%3Baspect%3Dfixed%3BstrokeWidth%3D3%3B%22%20vertex%3D%221%22%20parent%3D%2215%22%3E%3CmxGeometry%20width%3D%2230%22%20height%3D%2230%22%20as%3D%22geometry%22%2F%3E%3C%2FmxCell%3E%3CmxCell%20id%3D%2218%22%20value%3D%22%22%20style%3D%22group%22%20vertex%3D%221%22%20connectable%3D%220%22%20parent%3D%2215%22%3E%3CmxGeometry%20x%3D%22-35.5%22%20y%3D%22-25%22%20width%3D%2281%22%20height%3D%22110%22%20as%3D%22geometry%22%2F%3E%3C%2FmxCell%3E%3CmxCell%20id%3D%2219%22%20value%3D%22%22%20style%3D%22rounded%3D0%3BwhiteSpace%3Dwrap%3Bhtml%3D1%3BfontFamily%3D%E5%BE%AE%E8%BB%9F%E6%AD%A3%E9%BB%91%E9%AB%94%3BfontSize%3D24%3BfontStyle%3D1%3BstrokeWidth%3D3%3Bshadow%3D0%3Bglass%3D0%3Bcomic%3D0%3Balign%3Dcenter%3B%22%20vertex%3D%221%22%20parent%3D%2218%22%3E%3CmxGeometry%20width%3D%2281%22%20height%3D%22110%22%20as%3D%22geometry%22%2F%3E%3C%2FmxCell%3E%3CmxCell%20id%3D%2220%22%20value%3D%22%22%20style%3D%22group%22%20vertex%3D%221%22%20connectable%3D%220%22%20parent%3D%2218%22%3E%3CmxGeometry%20x%3D%2225.5%22%20y%3D%2225%22%20width%3D%2230%22%20height%3D%2260%22%20as%3D%22geometry%22%2F%3E%3C%2FmxCell%3E%3CmxCell%20id%3D%2221%22%20value%3D%22%22%20style%3D%22shape%3Dor%3BwhiteSpace%3Dwrap%3Bhtml%3D1%3BstrokeWidth%3D3%3Brotation%3D-90%3B%22%20vertex%3D%221%22%20parent%3D%2220%22%3E%3CmxGeometry%20y%3D%2230%22%20width%3D%2230%22%20height%3D%2230%22%20as%3D%22geometry%22%2F%3E%3C%2FmxCell%3E%3CmxCell%20id%3D%2222%22%20value%3D%22%22%20style%3D%22ellipse%3BwhiteSpace%3Dwrap%3Bhtml%3D1%3Baspect%3Dfixed%3BstrokeWidth%3D3%3B%22%20vertex%3D%221%22%20parent%3D%2220%22%3E%3CmxGeometry%20width%3D%2230%22%20height%3D%2230%22%20as%3D%22geometry%22%2F%3E%3C%2FmxCell%3E%3CmxCell%20id%3D%2223%22%20value%3D%22%26lt%3Bfont%20style%3D%26quot%3Bfont-size%3A%2020px%26quot%3B%26gt%3BDraw%26lt%3B%2Ffont%26gt%3B%22%20style%3D%22rounded%3D1%3BwhiteSpace%3Dwrap%3Bhtml%3D1%3BfontFamily%3D%E5%BE%AE%E8%BB%9F%E6%AD%A3%E9%BB%91%E9%AB%94%3BfontSize%3D24%3BfontStyle%3D1%3BstrokeWidth%3D3%3Bshadow%3D0%3Bglass%3D0%3Bcomic%3D0%3Balign%3Dcenter%3BperimeterSpacing%3D0%3BverticalAlign%3Dmiddle%3B%22%20vertex%3D%221%22%20parent%3D%224%22%3E%3CmxGeometry%20x%3D%22610%22%20y%3D%22240%22%20width%3D%22111%22%20height%3D%2240%22%20as%3D%22geometry%22%2F%3E%3C%2FmxCell%3E%3CmxCell%20id%3D%2224%22%20value%3D%22%22%20style%3D%22group%22%20vertex%3D%221%22%20connectable%3D%220%22%20parent%3D%224%22%3E%3CmxGeometry%20x%3D%22359.5%22%20y%3D%22290%22%20width%3D%2281%22%20height%3D%22110%22%20as%3D%22geometry%22%2F%3E%3C%2FmxCell%3E%3CmxCell%20id%3D%2225%22%20value%3D%22%22%20style%3D%22rounded%3D0%3BwhiteSpace%3Dwrap%3Bhtml%3D1%3BfontFamily%3D%E5%BE%AE%E8%BB%9F%E6%AD%A3%E9%BB%91%E9%AB%94%3BfontSize%3D24%3BfontStyle%3D1%3BstrokeWidth%3D3%3Bshadow%3D0%3Bglass%3D0%3Bcomic%3D0%3Balign%3Dcenter%3B%22%20vertex%3D%221%22%20parent%3D%2224%22%3E%3CmxGeometry%20width%3D%2281%22%20height%3D%22110%22%20as%3D%22geometry%22%2F%3E%3C%2FmxCell%3E%3CmxCell%20id%3D%2226%22%20value%3D%22%22%20style%3D%22group%22%20vertex%3D%221%22%20connectable%3D%220%22%20parent%3D%2224%22%3E%3CmxGeometry%20x%3D%2225.5%22%20y%3D%2225%22%20width%3D%2230%22%20height%3D%2260%22%20as%3D%22geometry%22%2F%3E%3C%2FmxCell%3E%3CmxCell%20id%3D%2227%22%20value%3D%22%22%20style%3D%22shape%3Dor%3BwhiteSpace%3Dwrap%3Bhtml%3D1%3BstrokeWidth%3D3%3Brotation%3D-90%3B%22%20vertex%3D%221%22%20parent%3D%2226%22%3E%3CmxGeometry%20y%3D%2230%22%20width%3D%2230%22%20height%3D%2230%22%20as%3D%22geometry%22%2F%3E%3C%2FmxCell%3E%3CmxCell%20id%3D%2228%22%20value%3D%22%22%20style%3D%22ellipse%3BwhiteSpace%3Dwrap%3Bhtml%3D1%3Baspect%3Dfixed%3BstrokeWidth%3D3%3B%22%20vertex%3D%221%22%20parent%3D%2226%22%3E%3CmxGeometry%20width%3D%2230%22%20height%3D%2230%22%20as%3D%22geometry%22%2F%3E%3C%2FmxCell%3E%3CmxCell%20id%3D%2229%22%20value%3D%22%22%20style%3D%22group%22%20vertex%3D%221%22%20connectable%3D%220%22%20parent%3D%224%22%3E%3CmxGeometry%20x%3D%22230%22%20y%3D%22290%22%20width%3D%2281%22%20height%3D%22110%22%20as%3D%22geometry%22%2F%3E%3C%2FmxCell%3E%3CmxCell%20id%3D%2230%22%20value%3D%22%22%20style%3D%22rounded%3D0%3BwhiteSpace%3Dwrap%3Bhtml%3D1%3BfontFamily%3D%E5%BE%AE%E8%BB%9F%E6%AD%A3%E9%BB%91%E9%AB%94%3BfontSize%3D24%3BfontStyle%3D1%3BstrokeWidth%3D3%3Bshadow%3D0%3Bglass%3D0%3Bcomic%3D0%3Balign%3Dcenter%3B%22%20vertex%3D%221%22%20parent%3D%2229%22%3E%3CmxGeometry%20width%3D%2281%22%20height%3D%22110%22%20as%3D%22geometry%22%2F%3E%3C%2FmxCell%3E%3CmxCell%20id%3D%2231%22%20value%3D%22%22%20style%3D%22group%22%20vertex%3D%221%22%20connectable%3D%220%22%20parent%3D%2229%22%3E%3CmxGeometry%20x%3D%2225.5%22%20y%3D%2225%22%20width%3D%2230%22%20height%3D%2260%22%20as%3D%22geometry%22%2F%3E%3C%2FmxCell%3E%3CmxCell%20id%3D%2232%22%20value%3D%22%22%20style%3D%22shape%3Dor%3BwhiteSpace%3Dwrap%3Bhtml%3D1%3BstrokeWidth%3D3%3Brotation%3D-90%3B%22%20vertex%3D%221%22%20parent%3D%2231%22%3E%3CmxGeometry%20y%3D%2230%22%20width%3D%2230%22%20height%3D%2230%22%20as%3D%22geometry%22%2F%3E%3C%2FmxCell%3E%3CmxCell%20id%3D%2233%22%20value%3D%22%22%20style%3D%22ellipse%3BwhiteSpace%3Dwrap%3Bhtml%3D1%3Baspect%3Dfixed%3BstrokeWidth%3D3%3B%22%20vertex%3D%221%22%20parent%3D%2231%22%3E%3CmxGeometry%20width%3D%2230%22%20height%3D%2230%22%20as%3D%22geometry%22%2F%3E%3C%2FmxCell%3E%3CmxCell%20id%3D%2234%22%20value%3D%22%22%20style%3D%22rounded%3D0%3BwhiteSpace%3Dwrap%3Bhtml%3D1%3BfontFamily%3D%E5%BE%AE%E8%BB%9F%E6%AD%A3%E9%BB%91%E9%AB%94%3BfontSize%3D24%3BfontStyle%3D1%3BstrokeWidth%3D3%3Bshadow%3D0%3Bglass%3D0%3Bcomic%3D0%3Balign%3Dcenter%3B%22%20vertex%3D%221%22%20parent%3D%222%22%3E%3CmxGeometry%20x%3D%22285%22%20y%3D%22450%22%20width%3D%2281%22%20height%3D%22110%22%20as%3D%22geometry%22%2F%3E%3C%2FmxCell%3E%3CmxCell%20id%3D%2235%22%20value%3D%22%22%20style%3D%22rounded%3D0%3BwhiteSpace%3Dwrap%3Bhtml%3D1%3BfontFamily%3D%E5%BE%AE%E8%BB%9F%E6%AD%A3%E9%BB%91%E9%AB%94%3BfontSize%3D24%3BfontStyle%3D1%3BstrokeWidth%3D3%3Bshadow%3D0%3Bglass%3D0%3Bcomic%3D0%3Balign%3Dcenter%3B%22%20vertex%3D%221%22%20parent%3D%222%22%3E%3CmxGeometry%20x%3D%22325%22%20y%3D%22450%22%20width%3D%2281%22%20height%3D%22110%22%20as%3D%22geometry%22%2F%3E%3C%2FmxCell%3E%3CmxCell%20id%3D%2236%22%20value%3D%22%22%20style%3D%22rounded%3D0%3BwhiteSpace%3Dwrap%3Bhtml%3D1%3BfontFamily%3D%E5%BE%AE%E8%BB%9F%E6%AD%A3%E9%BB%91%E9%AB%94%3BfontSize%3D24%3BfontStyle%3D1%3BstrokeWidth%3D3%3Bshadow%3D0%3Bglass%3D0%3Bcomic%3D0%3Balign%3Dcenter%3B%22%20vertex%3D%221%22%20parent%3D%222%22%3E%3CmxGeometry%20x%3D%22359.5%22%20y%3D%22450%22%20width%3D%2281%22%20height%3D%22110%22%20as%3D%22geometry%22%2F%3E%3C%2FmxCell%3E%3CmxCell%20id%3D%2237%22%20value%3D%22%22%20style%3D%22rounded%3D0%3BwhiteSpace%3Dwrap%3Bhtml%3D1%3BfontFamily%3D%E5%BE%AE%E8%BB%9F%E6%AD%A3%E9%BB%91%E9%AB%94%3BfontSize%3D24%3BfontStyle%3D1%3BstrokeWidth%3D3%3Bshadow%3D0%3Bglass%3D0%3Bcomic%3D0%3Balign%3Dcenter%3B%22%20vertex%3D%221%22%20parent%3D%222%22%3E%3CmxGeometry%20x%3D%22395%22%20y%3D%22450%22%20width%3D%2281%22%20height%3D%22110%22%20as%3D%22geometry%22%2F%3E%3C%2FmxCell%3E%3CmxCell%20id%3D%2238%22%20value%3D%22%22%20style%3D%22rounded%3D0%3BwhiteSpace%3Dwrap%3Bhtml%3D1%3BfontFamily%3D%E5%BE%AE%E8%BB%9F%E6%AD%A3%E9%BB%91%E9%AB%94%3BfontSize%3D24%3BfontStyle%3D1%3BstrokeWidth%3D3%3Bshadow%3D0%3Bglass%3D0%3Bcomic%3D0%3Balign%3Dcenter%3B%22%20vertex%3D%221%22%20parent%3D%222%22%3E%3CmxGeometry%20x%3D%22435%22%20y%3D%22450%22%20width%3D%2281%22%20height%3D%22110%22%20as%3D%22geometry%22%2F%3E%3C%2FmxCell%3E%3C%2Froot%3E%3C%2FmxGraphModel%3E&lt;/span&gt;" style="rounded=0;whiteSpace=wrap;html=1;fontFamily=微軟正黑體;fontSize=24;fontStyle=1;strokeWidth=3;shadow=0;glass=0;comic=0;align=center;" vertex="1" parent="187">
                    <mxGeometry x="250" y="270" width="81" height="110" as="geometry"/>
                </mxCell>
                <mxCell id="166" value="" style="rounded=0;whiteSpace=wrap;html=1;fontFamily=微軟正黑體;fontSize=24;fontStyle=1;strokeWidth=3;shadow=0;glass=0;comic=0;align=center;" parent="187" vertex="1">
                    <mxGeometry width="800" height="50" as="geometry"/>
                </mxCell>
                <mxCell id="168" value="&lt;div style=&quot;&quot;&gt;&lt;span style=&quot;font-size: 24px&quot;&gt;&lt;b&gt;Engineer Evolution&lt;/b&gt;&lt;/span&gt;&lt;/div&gt;" style="text;whiteSpace=wrap;html=1;align=center;verticalAlign=middle;" parent="187" vertex="1">
                    <mxGeometry width="250" height="50" as="geometry"/>
                </mxCell>
                <mxCell id="188" value="" style="group" vertex="1" connectable="0" parent="187">
                    <mxGeometry x="640" y="100" width="81" height="110" as="geometry"/>
                </mxCell>
                <mxCell id="189" value="" style="rounded=0;whiteSpace=wrap;html=1;fontFamily=微軟正黑體;fontSize=24;fontStyle=1;strokeWidth=3;shadow=0;glass=0;comic=0;align=center;" vertex="1" parent="188">
                    <mxGeometry width="81" height="110" as="geometry"/>
                </mxCell>
                <mxCell id="190" value="" style="group" vertex="1" connectable="0" parent="188">
                    <mxGeometry x="25.5" y="25" width="45.5" height="85" as="geometry"/>
                </mxCell>
                <mxCell id="191" value="" style="shape=or;whiteSpace=wrap;html=1;strokeWidth=3;rotation=-90;" vertex="1" parent="190">
                    <mxGeometry y="30" width="30" height="30" as="geometry"/>
                </mxCell>
                <mxCell id="192" value="" style="ellipse;whiteSpace=wrap;html=1;aspect=fixed;strokeWidth=3;" vertex="1" parent="190">
                    <mxGeometry width="30" height="30" as="geometry"/>
                </mxCell>
                <mxCell id="185" value="" style="group" vertex="1" connectable="0" parent="190">
                    <mxGeometry x="-35.5" y="-25" width="81" height="110" as="geometry"/>
                </mxCell>
                <mxCell id="180" value="" style="rounded=0;whiteSpace=wrap;html=1;fontFamily=微軟正黑體;fontSize=24;fontStyle=1;strokeWidth=3;shadow=0;glass=0;comic=0;align=center;" vertex="1" parent="185">
                    <mxGeometry width="81" height="110" as="geometry"/>
                </mxCell>
                <mxCell id="184" value="" style="group" vertex="1" connectable="0" parent="185">
                    <mxGeometry x="25.5" y="25" width="45.5" height="85" as="geometry"/>
                </mxCell>
                <mxCell id="182" value="" style="shape=or;whiteSpace=wrap;html=1;strokeWidth=3;rotation=-90;" vertex="1" parent="184">
                    <mxGeometry y="30" width="30" height="30" as="geometry"/>
                </mxCell>
                <mxCell id="181" value="" style="ellipse;whiteSpace=wrap;html=1;aspect=fixed;strokeWidth=3;" vertex="1" parent="184">
                    <mxGeometry width="30" height="30" as="geometry"/>
                </mxCell>
                <mxCell id="194" value="" style="group" vertex="1" connectable="0" parent="184">
                    <mxGeometry x="-35.5" y="-25" width="81" height="110" as="geometry"/>
                </mxCell>
                <mxCell id="195" value="" style="rounded=0;whiteSpace=wrap;html=1;fontFamily=微軟正黑體;fontSize=24;fontStyle=1;strokeWidth=3;shadow=0;glass=0;comic=0;align=center;" vertex="1" parent="194">
                    <mxGeometry width="81" height="110" as="geometry"/>
                </mxCell>
                <mxCell id="196" value="" style="group" vertex="1" connectable="0" parent="194">
                    <mxGeometry x="25.5" y="25" width="30" height="60" as="geometry"/>
                </mxCell>
                <mxCell id="197" value="" style="shape=or;whiteSpace=wrap;html=1;strokeWidth=3;rotation=-90;" vertex="1" parent="196">
                    <mxGeometry y="30" width="30" height="30" as="geometry"/>
                </mxCell>
                <mxCell id="198" value="" style="ellipse;whiteSpace=wrap;html=1;aspect=fixed;strokeWidth=3;" vertex="1" parent="196">
                    <mxGeometry width="30" height="30" as="geometry"/>
                </mxCell>
                <mxCell id="175" value="&lt;font style=&quot;font-size: 20px&quot;&gt;Draw&lt;/font&gt;" style="rounded=1;whiteSpace=wrap;html=1;fontFamily=微軟正黑體;fontSize=24;fontStyle=1;strokeWidth=3;shadow=0;glass=0;comic=0;align=center;perimeterSpacing=0;verticalAlign=middle;" parent="187" vertex="1">
                    <mxGeometry x="610" y="240" width="111" height="40" as="geometry"/>
                </mxCell>
                <mxCell id="199" value="" style="group" vertex="1" connectable="0" parent="187">
                    <mxGeometry x="359.5" y="290" width="81" height="110" as="geometry"/>
                </mxCell>
                <mxCell id="200" value="" style="rounded=0;whiteSpace=wrap;html=1;fontFamily=微軟正黑體;fontSize=24;fontStyle=1;strokeWidth=3;shadow=0;glass=0;comic=0;align=center;" vertex="1" parent="199">
                    <mxGeometry width="81" height="110" as="geometry"/>
                </mxCell>
                <mxCell id="201" value="" style="group" vertex="1" connectable="0" parent="199">
                    <mxGeometry x="25.5" y="25" width="30" height="60" as="geometry"/>
                </mxCell>
                <mxCell id="202" value="" style="shape=or;whiteSpace=wrap;html=1;strokeWidth=3;rotation=-90;" vertex="1" parent="201">
                    <mxGeometry y="30" width="30" height="30" as="geometry"/>
                </mxCell>
                <mxCell id="203" value="" style="ellipse;whiteSpace=wrap;html=1;aspect=fixed;strokeWidth=3;" vertex="1" parent="201">
                    <mxGeometry width="30" height="30" as="geometry"/>
                </mxCell>
                <mxCell id="290" value="" style="group" vertex="1" connectable="0" parent="187">
                    <mxGeometry x="250" y="290" width="81" height="110" as="geometry"/>
                </mxCell>
                <mxCell id="291" value="" style="rounded=0;whiteSpace=wrap;html=1;fontFamily=微軟正黑體;fontSize=24;fontStyle=1;strokeWidth=3;shadow=0;glass=0;comic=0;align=center;" vertex="1" parent="290">
                    <mxGeometry width="81" height="110" as="geometry"/>
                </mxCell>
                <mxCell id="292" value="" style="group" vertex="1" connectable="0" parent="290">
                    <mxGeometry x="25.5" y="25" width="30" height="60" as="geometry"/>
                </mxCell>
                <mxCell id="293" value="" style="shape=or;whiteSpace=wrap;html=1;strokeWidth=3;rotation=-90;" vertex="1" parent="292">
                    <mxGeometry y="30" width="30" height="30" as="geometry"/>
                </mxCell>
                <mxCell id="294" value="" style="ellipse;whiteSpace=wrap;html=1;aspect=fixed;strokeWidth=3;" vertex="1" parent="292">
                    <mxGeometry width="30" height="30" as="geometry"/>
                </mxCell>
                <mxCell id="172" value="" style="rounded=0;whiteSpace=wrap;html=1;fontFamily=微軟正黑體;fontSize=24;fontStyle=1;strokeWidth=3;shadow=0;glass=0;comic=0;align=center;" parent="173" vertex="1">
                    <mxGeometry x="285" y="450" width="81" height="110" as="geometry"/>
                </mxCell>
                <mxCell id="176" value="" style="rounded=0;whiteSpace=wrap;html=1;fontFamily=微軟正黑體;fontSize=24;fontStyle=1;strokeWidth=3;shadow=0;glass=0;comic=0;align=center;" parent="173" vertex="1">
                    <mxGeometry x="325" y="450" width="81" height="110" as="geometry"/>
                </mxCell>
                <mxCell id="177" value="" style="rounded=0;whiteSpace=wrap;html=1;fontFamily=微軟正黑體;fontSize=24;fontStyle=1;strokeWidth=3;shadow=0;glass=0;comic=0;align=center;" parent="173" vertex="1">
                    <mxGeometry x="359.5" y="450" width="81" height="110" as="geometry"/>
                </mxCell>
                <mxCell id="178" value="" style="rounded=0;whiteSpace=wrap;html=1;fontFamily=微軟正黑體;fontSize=24;fontStyle=1;strokeWidth=3;shadow=0;glass=0;comic=0;align=center;" parent="173" vertex="1">
                    <mxGeometry x="395" y="450" width="81" height="110" as="geometry"/>
                </mxCell>
                <mxCell id="179" value="&lt;span style=&quot;color: rgba(0 , 0 , 0 , 0) ; font-family: monospace ; font-size: 0px ; font-weight: 400&quot;&gt;%3CmxGraphModel%3E%3Croot%3E%3CmxCell%20id%3D%220%22%2F%3E%3CmxCell%20id%3D%221%22%20parent%3D%220%22%2F%3E%3CmxCell%20id%3D%222%22%20value%3D%22%22%20style%3D%22group%3BverticalAlign%3Dtop%3B%22%20vertex%3D%221%22%20connectable%3D%220%22%20parent%3D%221%22%3E%3CmxGeometry%20x%3D%2270%22%20y%3D%2250%22%20width%3D%22800%22%20height%3D%22600%22%20as%3D%22geometry%22%2F%3E%3C%2FmxCell%3E%3CmxCell%20id%3D%223%22%20value%3D%22%22%20style%3D%22group%22%20vertex%3D%221%22%20connectable%3D%220%22%20parent%3D%222%22%3E%3CmxGeometry%20width%3D%22800%22%20height%3D%22600%22%20as%3D%22geometry%22%2F%3E%3C%2FmxCell%3E%3CmxCell%20id%3D%224%22%20value%3D%22%22%20style%3D%22group%22%20vertex%3D%221%22%20connectable%3D%220%22%20parent%3D%223%22%3E%3CmxGeometry%20width%3D%22800%22%20height%3D%22600%22%20as%3D%22geometry%22%2F%3E%3C%2FmxCell%3E%3CmxCell%20id%3D%225%22%20value%3D%22%22%20style%3D%22rounded%3D0%3BwhiteSpace%3Dwrap%3Bhtml%3D1%3BfontFamily%3D%E5%BE%AE%E8%BB%9F%E6%AD%A3%E9%BB%91%E9%AB%94%3BfontSize%3D24%3BfontStyle%3D1%3BstrokeWidth%3D3%3Bshadow%3D0%3Bglass%3D0%3Bcomic%3D0%3Balign%3Dcenter%3B%22%20vertex%3D%221%22%20parent%3D%224%22%3E%3CmxGeometry%20width%3D%22800%22%20height%3D%22600%22%20as%3D%22geometry%22%2F%3E%3C%2FmxCell%3E%3CmxCell%20id%3D%226%22%20value%3D%22%22%20style%3D%22rounded%3D0%3BwhiteSpace%3Dwrap%3Bhtml%3D1%3BfontFamily%3D%E5%BE%AE%E8%BB%9F%E6%AD%A3%E9%BB%91%E9%AB%94%3BfontSize%3D24%3BfontStyle%3D1%3BstrokeWidth%3D3%3Bshadow%3D0%3Bglass%3D0%3Bcomic%3D0%3Balign%3Dcenter%3B%22%20vertex%3D%221%22%20parent%3D%224%22%3E%3CmxGeometry%20width%3D%22800%22%20height%3D%2250%22%20as%3D%22geometry%22%2F%3E%3C%2FmxCell%3E%3CmxCell%20id%3D%227%22%20value%3D%22%26lt%3Bdiv%20style%3D%26quot%3B%26quot%3B%26gt%3B%26lt%3Bspan%20style%3D%26quot%3Bfont-size%3A%2024px%26quot%3B%26gt%3B%26lt%3Bb%26gt%3BEngineer%20Evolution%26lt%3B%2Fb%26gt%3B%26lt%3B%2Fspan%26gt%3B%26lt%3B%2Fdiv%26gt%3B%22%20style%3D%22text%3BwhiteSpace%3Dwrap%3Bhtml%3D1%3Balign%3Dcenter%3BverticalAlign%3Dmiddle%3B%22%20vertex%3D%221%22%20parent%3D%224%22%3E%3CmxGeometry%20width%3D%22250%22%20height%3D%2250%22%20as%3D%22geometry%22%2F%3E%3C%2FmxCell%3E%3CmxCell%20id%3D%228%22%20value%3D%22%22%20style%3D%22group%22%20vertex%3D%221%22%20connectable%3D%220%22%20parent%3D%224%22%3E%3CmxGeometry%20x%3D%22640%22%20y%3D%22100%22%20width%3D%2281%22%20height%3D%22110%22%20as%3D%22geometry%22%2F%3E%3C%2FmxCell%3E%3CmxCell%20id%3D%229%22%20value%3D%22%22%20style%3D%22rounded%3D0%3BwhiteSpace%3Dwrap%3Bhtml%3D1%3BfontFamily%3D%E5%BE%AE%E8%BB%9F%E6%AD%A3%E9%BB%91%E9%AB%94%3BfontSize%3D24%3BfontStyle%3D1%3BstrokeWidth%3D3%3Bshadow%3D0%3Bglass%3D0%3Bcomic%3D0%3Balign%3Dcenter%3B%22%20vertex%3D%221%22%20parent%3D%228%22%3E%3CmxGeometry%20width%3D%2281%22%20height%3D%22110%22%20as%3D%22geometry%22%2F%3E%3C%2FmxCell%3E%3CmxCell%20id%3D%2210%22%20value%3D%22%22%20style%3D%22group%22%20vertex%3D%221%22%20connectable%3D%220%22%20parent%3D%228%22%3E%3CmxGeometry%20x%3D%2225.5%22%20y%3D%2225%22%20width%3D%2245.5%22%20height%3D%2285%22%20as%3D%22geometry%22%2F%3E%3C%2FmxCell%3E%3CmxCell%20id%3D%2211%22%20value%3D%22%22%20style%3D%22shape%3Dor%3BwhiteSpace%3Dwrap%3Bhtml%3D1%3BstrokeWidth%3D3%3Brotation%3D-90%3B%22%20vertex%3D%221%22%20parent%3D%2210%22%3E%3CmxGeometry%20y%3D%2230%22%20width%3D%2230%22%20height%3D%2230%22%20as%3D%22geometry%22%2F%3E%3C%2FmxCell%3E%3CmxCell%20id%3D%2212%22%20value%3D%22%22%20style%3D%22ellipse%3BwhiteSpace%3Dwrap%3Bhtml%3D1%3Baspect%3Dfixed%3BstrokeWidth%3D3%3B%22%20vertex%3D%221%22%20parent%3D%2210%22%3E%3CmxGeometry%20width%3D%2230%22%20height%3D%2230%22%20as%3D%22geometry%22%2F%3E%3C%2FmxCell%3E%3CmxCell%20id%3D%2213%22%20value%3D%22%22%20style%3D%22group%22%20vertex%3D%221%22%20connectable%3D%220%22%20parent%3D%2210%22%3E%3CmxGeometry%20x%3D%22-35.5%22%20y%3D%22-25%22%20width%3D%2281%22%20height%3D%22110%22%20as%3D%22geometry%22%2F%3E%3C%2FmxCell%3E%3CmxCell%20id%3D%2214%22%20value%3D%22%22%20style%3D%22rounded%3D0%3BwhiteSpace%3Dwrap%3Bhtml%3D1%3BfontFamily%3D%E5%BE%AE%E8%BB%9F%E6%AD%A3%E9%BB%91%E9%AB%94%3BfontSize%3D24%3BfontStyle%3D1%3BstrokeWidth%3D3%3Bshadow%3D0%3Bglass%3D0%3Bcomic%3D0%3Balign%3Dcenter%3B%22%20vertex%3D%221%22%20parent%3D%2213%22%3E%3CmxGeometry%20width%3D%2281%22%20height%3D%22110%22%20as%3D%22geometry%22%2F%3E%3C%2FmxCell%3E%3CmxCell%20id%3D%2215%22%20value%3D%22%22%20style%3D%22group%22%20vertex%3D%221%22%20connectable%3D%220%22%20parent%3D%2213%22%3E%3CmxGeometry%20x%3D%2225.5%22%20y%3D%2225%22%20width%3D%2245.5%22%20height%3D%2285%22%20as%3D%22geometry%22%2F%3E%3C%2FmxCell%3E%3CmxCell%20id%3D%2216%22%20value%3D%22%22%20style%3D%22shape%3Dor%3BwhiteSpace%3Dwrap%3Bhtml%3D1%3BstrokeWidth%3D3%3Brotation%3D-90%3B%22%20vertex%3D%221%22%20parent%3D%2215%22%3E%3CmxGeometry%20y%3D%2230%22%20width%3D%2230%22%20height%3D%2230%22%20as%3D%22geometry%22%2F%3E%3C%2FmxCell%3E%3CmxCell%20id%3D%2217%22%20value%3D%22%22%20style%3D%22ellipse%3BwhiteSpace%3Dwrap%3Bhtml%3D1%3Baspect%3Dfixed%3BstrokeWidth%3D3%3B%22%20vertex%3D%221%22%20parent%3D%2215%22%3E%3CmxGeometry%20width%3D%2230%22%20height%3D%2230%22%20as%3D%22geometry%22%2F%3E%3C%2FmxCell%3E%3CmxCell%20id%3D%2218%22%20value%3D%22%22%20style%3D%22group%22%20vertex%3D%221%22%20connectable%3D%220%22%20parent%3D%2215%22%3E%3CmxGeometry%20x%3D%22-35.5%22%20y%3D%22-25%22%20width%3D%2281%22%20height%3D%22110%22%20as%3D%22geometry%22%2F%3E%3C%2FmxCell%3E%3CmxCell%20id%3D%2219%22%20value%3D%22%22%20style%3D%22rounded%3D0%3BwhiteSpace%3Dwrap%3Bhtml%3D1%3BfontFamily%3D%E5%BE%AE%E8%BB%9F%E6%AD%A3%E9%BB%91%E9%AB%94%3BfontSize%3D24%3BfontStyle%3D1%3BstrokeWidth%3D3%3Bshadow%3D0%3Bglass%3D0%3Bcomic%3D0%3Balign%3Dcenter%3B%22%20vertex%3D%221%22%20parent%3D%2218%22%3E%3CmxGeometry%20width%3D%2281%22%20height%3D%22110%22%20as%3D%22geometry%22%2F%3E%3C%2FmxCell%3E%3CmxCell%20id%3D%2220%22%20value%3D%22%22%20style%3D%22group%22%20vertex%3D%221%22%20connectable%3D%220%22%20parent%3D%2218%22%3E%3CmxGeometry%20x%3D%2225.5%22%20y%3D%2225%22%20width%3D%2230%22%20height%3D%2260%22%20as%3D%22geometry%22%2F%3E%3C%2FmxCell%3E%3CmxCell%20id%3D%2221%22%20value%3D%22%22%20style%3D%22shape%3Dor%3BwhiteSpace%3Dwrap%3Bhtml%3D1%3BstrokeWidth%3D3%3Brotation%3D-90%3B%22%20vertex%3D%221%22%20parent%3D%2220%22%3E%3CmxGeometry%20y%3D%2230%22%20width%3D%2230%22%20height%3D%2230%22%20as%3D%22geometry%22%2F%3E%3C%2FmxCell%3E%3CmxCell%20id%3D%2222%22%20value%3D%22%22%20style%3D%22ellipse%3BwhiteSpace%3Dwrap%3Bhtml%3D1%3Baspect%3Dfixed%3BstrokeWidth%3D3%3B%22%20vertex%3D%221%22%20parent%3D%2220%22%3E%3CmxGeometry%20width%3D%2230%22%20height%3D%2230%22%20as%3D%22geometry%22%2F%3E%3C%2FmxCell%3E%3CmxCell%20id%3D%2223%22%20value%3D%22%26lt%3Bfont%20style%3D%26quot%3Bfont-size%3A%2020px%26quot%3B%26gt%3BDraw%26lt%3B%2Ffont%26gt%3B%22%20style%3D%22rounded%3D1%3BwhiteSpace%3Dwrap%3Bhtml%3D1%3BfontFamily%3D%E5%BE%AE%E8%BB%9F%E6%AD%A3%E9%BB%91%E9%AB%94%3BfontSize%3D24%3BfontStyle%3D1%3BstrokeWidth%3D3%3Bshadow%3D0%3Bglass%3D0%3Bcomic%3D0%3Balign%3Dcenter%3BperimeterSpacing%3D0%3BverticalAlign%3Dmiddle%3B%22%20vertex%3D%221%22%20parent%3D%224%22%3E%3CmxGeometry%20x%3D%22610%22%20y%3D%22240%22%20width%3D%22111%22%20height%3D%2240%22%20as%3D%22geometry%22%2F%3E%3C%2FmxCell%3E%3CmxCell%20id%3D%2224%22%20value%3D%22%22%20style%3D%22group%22%20vertex%3D%221%22%20connectable%3D%220%22%20parent%3D%224%22%3E%3CmxGeometry%20x%3D%22359.5%22%20y%3D%22290%22%20width%3D%2281%22%20height%3D%22110%22%20as%3D%22geometry%22%2F%3E%3C%2FmxCell%3E%3CmxCell%20id%3D%2225%22%20value%3D%22%22%20style%3D%22rounded%3D0%3BwhiteSpace%3Dwrap%3Bhtml%3D1%3BfontFamily%3D%E5%BE%AE%E8%BB%9F%E6%AD%A3%E9%BB%91%E9%AB%94%3BfontSize%3D24%3BfontStyle%3D1%3BstrokeWidth%3D3%3Bshadow%3D0%3Bglass%3D0%3Bcomic%3D0%3Balign%3Dcenter%3B%22%20vertex%3D%221%22%20parent%3D%2224%22%3E%3CmxGeometry%20width%3D%2281%22%20height%3D%22110%22%20as%3D%22geometry%22%2F%3E%3C%2FmxCell%3E%3CmxCell%20id%3D%2226%22%20value%3D%22%22%20style%3D%22group%22%20vertex%3D%221%22%20connectable%3D%220%22%20parent%3D%2224%22%3E%3CmxGeometry%20x%3D%2225.5%22%20y%3D%2225%22%20width%3D%2230%22%20height%3D%2260%22%20as%3D%22geometry%22%2F%3E%3C%2FmxCell%3E%3CmxCell%20id%3D%2227%22%20value%3D%22%22%20style%3D%22shape%3Dor%3BwhiteSpace%3Dwrap%3Bhtml%3D1%3BstrokeWidth%3D3%3Brotation%3D-90%3B%22%20vertex%3D%221%22%20parent%3D%2226%22%3E%3CmxGeometry%20y%3D%2230%22%20width%3D%2230%22%20height%3D%2230%22%20as%3D%22geometry%22%2F%3E%3C%2FmxCell%3E%3CmxCell%20id%3D%2228%22%20value%3D%22%22%20style%3D%22ellipse%3BwhiteSpace%3Dwrap%3Bhtml%3D1%3Baspect%3Dfixed%3BstrokeWidth%3D3%3B%22%20vertex%3D%221%22%20parent%3D%2226%22%3E%3CmxGeometry%20width%3D%2230%22%20height%3D%2230%22%20as%3D%22geometry%22%2F%3E%3C%2FmxCell%3E%3CmxCell%20id%3D%2229%22%20value%3D%22%22%20style%3D%22group%22%20vertex%3D%221%22%20connectable%3D%220%22%20parent%3D%224%22%3E%3CmxGeometry%20x%3D%22230%22%20y%3D%22290%22%20width%3D%2281%22%20height%3D%22110%22%20as%3D%22geometry%22%2F%3E%3C%2FmxCell%3E%3CmxCell%20id%3D%2230%22%20value%3D%22%22%20style%3D%22rounded%3D0%3BwhiteSpace%3Dwrap%3Bhtml%3D1%3BfontFamily%3D%E5%BE%AE%E8%BB%9F%E6%AD%A3%E9%BB%91%E9%AB%94%3BfontSize%3D24%3BfontStyle%3D1%3BstrokeWidth%3D3%3Bshadow%3D0%3Bglass%3D0%3Bcomic%3D0%3Balign%3Dcenter%3B%22%20vertex%3D%221%22%20parent%3D%2229%22%3E%3CmxGeometry%20width%3D%2281%22%20height%3D%22110%22%20as%3D%22geometry%22%2F%3E%3C%2FmxCell%3E%3CmxCell%20id%3D%2231%22%20value%3D%22%22%20style%3D%22group%22%20vertex%3D%221%22%20connectable%3D%220%22%20parent%3D%2229%22%3E%3CmxGeometry%20x%3D%2225.5%22%20y%3D%2225%22%20width%3D%2230%22%20height%3D%2260%22%20as%3D%22geometry%22%2F%3E%3C%2FmxCell%3E%3CmxCell%20id%3D%2232%22%20value%3D%22%22%20style%3D%22shape%3Dor%3BwhiteSpace%3Dwrap%3Bhtml%3D1%3BstrokeWidth%3D3%3Brotation%3D-90%3B%22%20vertex%3D%221%22%20parent%3D%2231%22%3E%3CmxGeometry%20y%3D%2230%22%20width%3D%2230%22%20height%3D%2230%22%20as%3D%22geometry%22%2F%3E%3C%2FmxCell%3E%3CmxCell%20id%3D%2233%22%20value%3D%22%22%20style%3D%22ellipse%3BwhiteSpace%3Dwrap%3Bhtml%3D1%3Baspect%3Dfixed%3BstrokeWidth%3D3%3B%22%20vertex%3D%221%22%20parent%3D%2231%22%3E%3CmxGeometry%20width%3D%2230%22%20height%3D%2230%22%20as%3D%22geometry%22%2F%3E%3C%2FmxCell%3E%3CmxCell%20id%3D%2234%22%20value%3D%22%22%20style%3D%22rounded%3D0%3BwhiteSpace%3Dwrap%3Bhtml%3D1%3BfontFamily%3D%E5%BE%AE%E8%BB%9F%E6%AD%A3%E9%BB%91%E9%AB%94%3BfontSize%3D24%3BfontStyle%3D1%3BstrokeWidth%3D3%3Bshadow%3D0%3Bglass%3D0%3Bcomic%3D0%3Balign%3Dcenter%3B%22%20vertex%3D%221%22%20parent%3D%222%22%3E%3CmxGeometry%20x%3D%22285%22%20y%3D%22450%22%20width%3D%2281%22%20height%3D%22110%22%20as%3D%22geometry%22%2F%3E%3C%2FmxCell%3E%3CmxCell%20id%3D%2235%22%20value%3D%22%22%20style%3D%22rounded%3D0%3BwhiteSpace%3Dwrap%3Bhtml%3D1%3BfontFamily%3D%E5%BE%AE%E8%BB%9F%E6%AD%A3%E9%BB%91%E9%AB%94%3BfontSize%3D24%3BfontStyle%3D1%3BstrokeWidth%3D3%3Bshadow%3D0%3Bglass%3D0%3Bcomic%3D0%3Balign%3Dcenter%3B%22%20vertex%3D%221%22%20parent%3D%222%22%3E%3CmxGeometry%20x%3D%22325%22%20y%3D%22450%22%20width%3D%2281%22%20height%3D%22110%22%20as%3D%22geometry%22%2F%3E%3C%2FmxCell%3E%3CmxCell%20id%3D%2236%22%20value%3D%22%22%20style%3D%22rounded%3D0%3BwhiteSpace%3Dwrap%3Bhtml%3D1%3BfontFamily%3D%E5%BE%AE%E8%BB%9F%E6%AD%A3%E9%BB%91%E9%AB%94%3BfontSize%3D24%3BfontStyle%3D1%3BstrokeWidth%3D3%3Bshadow%3D0%3Bglass%3D0%3Bcomic%3D0%3Balign%3Dcenter%3B%22%20vertex%3D%221%22%20parent%3D%222%22%3E%3CmxGeometry%20x%3D%22359.5%22%20y%3D%22450%22%20width%3D%2281%22%20height%3D%22110%22%20as%3D%22geometry%22%2F%3E%3C%2FmxCell%3E%3CmxCell%20id%3D%2237%22%20value%3D%22%22%20style%3D%22rounded%3D0%3BwhiteSpace%3Dwrap%3Bhtml%3D1%3BfontFamily%3D%E5%BE%AE%E8%BB%9F%E6%AD%A3%E9%BB%91%E9%AB%94%3BfontSize%3D24%3BfontStyle%3D1%3BstrokeWidth%3D3%3Bshadow%3D0%3Bglass%3D0%3Bcomic%3D0%3Balign%3Dcenter%3B%22%20vertex%3D%221%22%20parent%3D%222%22%3E%3CmxGeometry%20x%3D%22395%22%20y%3D%22450%22%20width%3D%2281%22%20height%3D%22110%22%20as%3D%22geometry%22%2F%3E%3C%2FmxCell%3E%3CmxCell%20id%3D%2238%22%20value%3D%22%22%20style%3D%22rounded%3D0%3BwhiteSpace%3Dwrap%3Bhtml%3D1%3BfontFamily%3D%E5%BE%AE%E8%BB%9F%E6%AD%A3%E9%BB%91%E9%AB%94%3BfontSize%3D24%3BfontStyle%3D1%3BstrokeWidth%3D3%3Bshadow%3D0%3Bglass%3D0%3Bcomic%3D0%3Balign%3Dcenter%3B%22%20vertex%3D%221%22%20parent%3D%222%22%3E%3CmxGeometry%20x%3D%22435%22%20y%3D%22450%22%20width%3D%2281%22%20height%3D%22110%22%20as%3D%22geometry%22%2F%3E%3C%2FmxCell%3E%3C%2Froot%3E%3C%2FmxGraphModel%3E&lt;/span&gt;" style="rounded=0;whiteSpace=wrap;html=1;fontFamily=微軟正黑體;fontSize=24;fontStyle=1;strokeWidth=3;shadow=0;glass=0;comic=0;align=center;" parent="173" vertex="1">
                    <mxGeometry x="435" y="450" width="81" height="110" as="geometry"/>
                </mxCell>
            </root>
        </mxGraphModel>
    </diagram>
</mxfile>